<svg width="500" height="418" viewBox="0 0 500 418" fill="none" xmlns="http://www.w3.org/2000/svg">
<rect x="171" y="371" width="242" height="192" rx="25" transform="rotate(-90 171 371)" stroke="black" stroke-width="10"/>
<line x1="234" y1="376" x2="234" y2="412" stroke="black" stroke-width="10"/>
<line x1="310" y1="376" x2="310" y2="412" stroke="black" stroke-width="10"/>
<line x1="190" y1="411" x2="348" y2="411" stroke="black" stroke-width="10"/>
<path d="M298 143H320.5V165.5H298V143ZM303 148V160.5H315.5V148H303ZM336.75 148C335.092 148 333.503 148.658 332.331 149.831C331.158 151.003 330.5 152.592 330.5 154.25C330.5 155.908 331.158 157.497 332.331 158.669C333.503 159.842 335.092 160.5 336.75 160.5C338.408 160.5 339.997 159.842 341.169 158.669C342.342 157.497 343 155.908 343 154.25C343 152.592 342.342 151.003 341.169 149.831C339.997 148.658 338.408 148 336.75 148ZM325.5 154.25C325.5 152.773 325.791 151.31 326.356 149.945C326.922 148.58 327.75 147.34 328.795 146.295C329.84 145.25 331.08 144.422 332.445 143.856C333.81 143.291 335.273 143 336.75 143C338.227 143 339.69 143.291 341.055 143.856C342.42 144.422 343.66 145.25 344.705 146.295C345.75 147.34 346.578 148.58 347.144 149.945C347.709 151.31 348 152.773 348 154.25C348 157.234 346.815 160.095 344.705 162.205C342.595 164.315 339.734 165.5 336.75 165.5C333.766 165.5 330.905 164.315 328.795 162.205C326.685 160.095 325.5 157.234 325.5 154.25ZM298 170.5H320.5V193H298V170.5ZM303 175.5V188H315.5V175.5H303ZM325.5 170.5H348V193H325.5V170.5ZM330.5 175.5V188H343V175.5H330.5Z" fill="black"/>
<path d="M208.988 310.001L204.197 306.409C203.94 306.216 203.641 306.086 203.324 306.031C203.007 305.976 202.681 305.997 202.374 306.093C200.89 306.557 199.451 307.153 198.072 307.873C197.787 308.022 197.541 308.238 197.356 308.501C197.17 308.764 197.05 309.068 197.004 309.387L196.157 315.316C195.835 315.602 195.519 315.9 195.209 316.209C194.9 316.518 194.602 316.834 194.316 317.157L194.316 317.157L188.388 318.005C188.07 318.05 187.766 318.17 187.503 318.356C187.24 318.541 187.025 318.786 186.875 319.071C186.155 320.448 185.558 321.887 185.092 323.371C184.996 323.679 184.975 324.005 185.03 324.322C185.085 324.64 185.214 324.939 185.408 325.197L189.001 329.988C188.975 330.419 188.962 330.853 188.962 331.29C188.962 331.727 188.975 332.161 189.001 332.592L189.001 332.592L185.409 337.384C185.216 337.641 185.086 337.94 185.031 338.257C184.976 338.574 184.997 338.899 185.093 339.206C185.557 340.69 186.153 342.13 186.873 343.508C187.022 343.794 187.238 344.039 187.501 344.225C187.764 344.411 188.068 344.531 188.387 344.576L194.316 345.423C194.602 345.746 194.9 346.062 195.209 346.371C195.518 346.681 195.834 346.978 196.157 347.265L196.157 347.265L197.005 353.193C197.05 353.511 197.17 353.814 197.356 354.077C197.541 354.34 197.786 354.556 198.071 354.705C199.448 355.426 200.887 356.023 202.371 356.489C202.679 356.585 203.005 356.606 203.322 356.551C203.64 356.496 203.939 356.367 204.197 356.173L208.988 352.579C209.419 352.605 209.853 352.618 210.29 352.618C210.727 352.618 211.161 352.605 211.592 352.579L211.592 352.579L216.384 356.172C216.641 356.365 216.94 356.495 217.257 356.55C217.574 356.605 217.899 356.583 218.206 356.488C219.69 356.023 221.13 355.428 222.508 354.708C222.794 354.558 223.039 354.343 223.225 354.08C223.411 353.816 223.531 353.513 223.576 353.194L224.423 347.265C224.746 346.979 225.062 346.681 225.371 346.372C225.681 346.063 225.978 345.746 226.265 345.423L226.265 345.423L232.193 344.576C232.511 344.531 232.814 344.41 233.077 344.225C233.34 344.04 233.556 343.795 233.705 343.51C234.426 342.132 235.023 340.693 235.489 339.21C235.585 338.902 235.606 338.576 235.551 338.259C235.496 337.941 235.367 337.641 235.173 337.384L231.579 332.592C231.605 332.162 231.618 331.728 231.618 331.291C231.618 330.853 231.605 330.419 231.579 329.988L231.579 329.988L235.172 325.197C235.365 324.94 235.495 324.641 235.55 324.324C235.605 324.007 235.583 323.681 235.488 323.374C235.023 321.89 234.428 320.451 233.708 319.072C233.558 318.787 233.343 318.541 233.08 318.356C232.816 318.17 232.513 318.05 232.194 318.004L226.265 317.157C225.979 316.835 225.681 316.519 225.372 316.209C225.063 315.9 224.746 315.602 224.423 315.316L224.423 315.316L223.576 309.388C223.531 309.07 223.41 308.766 223.225 308.503C223.04 308.24 222.795 308.025 222.51 307.875C221.132 307.155 219.693 306.558 218.21 306.092C217.902 305.996 217.576 305.975 217.259 306.03C216.941 306.085 216.641 306.214 216.384 306.408L211.592 310.001C211.162 309.975 210.728 309.962 210.291 309.962C209.853 309.962 209.419 309.975 208.988 310.001L208.988 310.001Z" stroke="#5982F2" stroke-width="4" stroke-linecap="round" stroke-linejoin="round"/>
<path d="M210.289 343.477C217.02 343.477 222.477 338.02 222.477 331.289C222.477 324.558 217.02 319.102 210.289 319.102C203.558 319.102 198.102 324.558 198.102 331.289C198.102 338.02 203.558 343.477 210.289 343.477Z" stroke="#5982F2" stroke-width="4" stroke-linecap="round" stroke-linejoin="round"/>
<path d="M152.167 341H52.1667C51.0616 341 50.0018 341.439 49.2204 342.22C48.439 343.002 48 344.062 48 345.167V411.833C48 412.938 48.439 413.998 49.2204 414.78C50.0018 415.561 51.0616 416 52.1667 416H152.167C153.272 416 154.332 415.561 155.113 414.78C155.894 413.998 156.333 412.938 156.333 411.833V345.167C156.333 344.062 155.894 343.002 155.113 342.22C154.332 341.439 153.272 341 152.167 341Z" stroke="black" stroke-width="4" stroke-linecap="round" stroke-linejoin="round"/>
<path d="M81.3333 368.083L66.75 380.583L79.25 391M125.083 370.167L137.583 380.583L123 393.083M95.9167 397.25L108.417 359.75" stroke="black" stroke-width="4" stroke-linecap="round" stroke-linejoin="round"/>
<path d="M84.2578 163.926L61.7647 142.085" stroke="#5982F2" stroke-width="5" stroke-linecap="round" stroke-linejoin="round"/>
<path d="M84.2582 163.926C81.7889 166.469 81.8851 170.568 84.4731 173.081C87.0612 175.594 91.161 175.57 93.6304 173.027C96.0997 170.483 96.0035 166.385 93.4155 163.872C90.8274 161.359 86.7276 161.383 84.2582 163.926Z" stroke="#5982F2" stroke-width="5" stroke-linecap="round" stroke-linejoin="round"/>
<path d="M115.523 169.232L124.895 178.332C125.392 178.815 125.681 179.472 125.697 180.159C125.713 180.845 125.455 181.506 124.981 181.994L103.519 204.097C103.045 204.585 102.393 204.862 101.706 204.866C101.019 204.87 100.354 204.601 99.8565 204.118L90.4844 195.018" stroke="#5982F2" stroke-width="5" stroke-linecap="round" stroke-linejoin="round"/>
<path d="M115.521 169.234L108.655 150.318C108.493 149.869 108.21 149.471 107.839 149.168C107.468 148.865 107.022 148.669 106.551 148.6L61.7639 142.085L69.5937 186.661C69.6761 187.13 69.8856 187.57 70.1992 187.932C70.5128 188.294 70.9186 188.565 71.3721 188.714L90.482 195.02L115.521 169.234Z" stroke="#5982F2" stroke-width="5" stroke-linecap="round" stroke-linejoin="round"/>
<path d="M2.28463 197.592C4.39783 199.644 7.77434 199.594 9.82629 197.481C11.8782 195.368 11.8286 191.991 9.71537 189.939C7.60217 187.887 4.22566 187.937 2.17371 190.05C0.121771 192.163 0.17143 195.54 2.28463 197.592ZM108.869 87.8253C110.983 89.8773 114.359 89.8276 116.411 87.7144C118.463 85.6012 118.413 82.2247 116.3 80.1728C114.187 78.1208 110.81 78.1705 108.758 80.2837C106.706 82.3969 106.756 85.7734 108.869 87.8253ZM6 193.766L6.71743 194.462L113.302 84.6957L112.585 83.999L111.867 83.3024L5.28257 193.069L6 193.766Z" fill="#5982F2"/>
<path d="M35.0847 210.363L41.5825 205.419L36.6382 198.921L30.1404 203.866L35.0847 210.363ZM130.042 112.663L123.468 107.821L118.625 114.395L125.199 119.237L130.042 112.663ZM61.9965 137.568L61.3043 136.846L61.9965 137.568ZM35.8614 204.642C36.8523 204.777 36.8523 204.777 36.8524 204.777C36.8524 204.776 36.8525 204.776 36.8526 204.775C36.8527 204.774 36.853 204.772 36.8534 204.769C36.8541 204.764 36.8553 204.756 36.8568 204.745C36.8599 204.722 36.8646 204.688 36.871 204.643C36.8837 204.553 36.9031 204.418 36.9292 204.241C36.9814 203.887 37.0608 203.363 37.1688 202.689C37.385 201.34 37.7159 199.39 38.1742 196.99C39.0909 192.189 40.5161 185.595 42.5494 178.419C46.6331 164.008 53.1106 147.476 62.6887 138.289L61.9965 137.568L61.3043 136.846C51.3047 146.437 44.7147 163.442 40.6252 177.874C38.572 185.12 37.1342 191.773 36.2097 196.615C35.7473 199.036 35.413 201.006 35.194 202.372C35.0846 203.055 35.0039 203.587 34.9505 203.95C34.9239 204.131 34.904 204.269 34.8907 204.363C34.8841 204.41 34.8791 204.446 34.8757 204.47C34.8741 204.482 34.8728 204.491 34.8719 204.498C34.8715 204.501 34.8712 204.503 34.8709 204.505C34.8708 204.506 34.8707 204.507 34.8707 204.507C34.8706 204.508 34.8705 204.508 35.8614 204.642ZM61.9965 137.568L62.6887 138.289C71.5275 129.812 86.8984 123.854 100.215 120.013C106.846 118.1 112.918 116.725 117.332 115.829C119.539 115.381 121.33 115.052 122.568 114.836C123.187 114.728 123.667 114.648 123.992 114.596C124.155 114.569 124.279 114.55 124.361 114.537C124.402 114.53 124.433 114.525 124.454 114.522C124.464 114.521 124.472 114.519 124.477 114.519C124.479 114.518 124.481 114.518 124.482 114.518C124.483 114.518 124.483 114.518 124.483 114.518C124.484 114.518 124.484 114.518 124.334 113.529C124.184 112.54 124.183 112.54 124.183 112.54C124.182 112.54 124.182 112.54 124.181 112.541C124.179 112.541 124.177 112.541 124.174 112.542C124.169 112.543 124.16 112.544 124.149 112.546C124.127 112.549 124.094 112.554 124.051 112.561C123.965 112.574 123.838 112.594 123.672 112.621C123.339 112.675 122.851 112.757 122.224 112.866C120.97 113.085 119.161 113.417 116.934 113.869C112.482 114.773 106.356 116.16 99.6607 118.091C86.3241 121.939 70.5264 128.001 61.3043 136.846L61.9965 137.568Z" fill="#5982F2"/>
<circle cx="319" cy="181" r="179" stroke="white" stroke-width="4" stroke-dasharray="15 15"/>
</svg>
