<svg width="56" height="27" viewBox="0 0 56 27" fill="none" xmlns="http://www.w3.org/2000/svg">
<path fill-rule="evenodd" clip-rule="evenodd" d="M31.6154 18.1513C32.0241 18.1176 32.7485 17.5295 32.8556 17.1668C32.8746 17.1017 32.8956 17.0256 32.8199 17.0037C32.7677 16.9888 32.6577 17.0142 32.6455 17.0477C32.4616 17.5545 31.9543 17.7627 31.6154 18.1513ZM50.2209 10.1263C50.7815 10.0734 51.2299 9.81945 51.6108 9.44647C51.7114 9.34806 51.9874 9.2531 51.7953 9.08238C51.6172 8.92434 51.6188 9.23932 51.5073 9.30276C51.4504 9.3352 51.3894 9.36456 51.3415 9.40751C51.0055 9.70908 50.5397 9.80586 50.2209 10.1263ZM37.7697 7.43858C37.4076 7.41774 36.1197 8.13615 36.0291 8.39114C36.0146 8.43138 36.011 8.49898 36.0346 8.52471C36.1201 8.61859 36.2216 8.56893 36.2992 8.51311C36.7841 8.16388 37.2646 7.80866 37.7697 7.43858ZM16.7084 15.558C16.4362 15.5719 16.3461 15.6678 16.2553 15.7637C15.4539 16.6119 14.7116 17.5003 14.0923 18.4994C13.2563 19.849 12.5094 21.2543 11.581 22.5481C11.4264 22.764 11.1217 22.9014 11.1056 23.3082C11.565 22.9153 11.8947 22.5166 12.1626 22.0659C12.7672 21.0492 13.3556 20.0228 13.9754 19.0157C14.7343 17.7826 15.641 16.6601 16.7084 15.558ZM0.645245 19.5217C1.04613 19.1536 1.27938 19.1906 1.44938 19.7089C1.72721 20.5574 1.91061 21.4321 1.86367 22.3308C1.85153 22.5624 2.03512 22.6257 2.10562 22.7797C2.2613 23.1199 2.34213 23.4835 2.48838 23.8276C2.97028 24.9607 3.95329 25.1952 4.99592 25.3793C7.17923 25.765 8.79166 24.7597 10.2491 23.2912C11.3242 22.2079 12.0076 20.8773 12.7514 19.581C13.5708 18.1525 14.4882 16.7947 15.6129 15.5882C17.5131 13.5499 20.2985 13.1894 22.8195 14.6067C24.1147 15.3349 25.2231 16.2956 26.1857 17.3962C27.2133 18.571 28.4389 18.7257 29.8054 18.3379C31.6413 17.8168 32.6787 16.4877 33.2844 14.7442C33.7487 13.4074 34.0013 12.0168 34.3624 10.6543C35.1455 7.69988 36.8095 6.6538 39.673 6.16502C40.7224 5.98596 41.4937 6.44031 42.188 7.1212C42.8105 7.73159 43.4113 8.36464 44.0213 8.9879C44.1598 9.12926 44.2923 9.27896 44.4991 9.32191C46.1146 9.65665 47.7352 9.96076 49.3909 9.6494C51.0954 9.3288 52.836 7.69027 52.9839 5.5954C53.094 4.03607 53.23 2.47838 53.3505 0.919775C53.3684 0.688522 53.3918 0.454187 53.5169 0.259906C53.6368 0.0732358 53.8175 -0.0226364 54.0647 0.00454858C54.3001 0.0304649 54.3259 0.154428 54.2956 0.343273C54.2844 0.412685 54.3152 0.480829 54.3866 0.498589C55.1855 0.698489 55.2507 1.39859 55.3288 2.00898C55.503 3.37113 55.2882 4.73563 55.2255 6.09832C55.1963 6.73572 55.155 7.37185 55.0283 8.00453C54.7465 9.41035 53.9892 10.4695 52.7396 11.2772C52.8858 10.9325 53.2523 10.8678 53.3596 10.5668C52.8146 10.9233 52.2798 11.2897 51.7004 11.5937C51.808 11.7285 51.9267 11.4985 52.0503 11.6923C51.5246 11.9056 51.0358 12.1964 50.4431 12.0208C50.3446 11.9918 50.3239 12.0286 50.2527 12.0634C49.7889 12.2892 49.2814 12.2142 48.7898 12.2316C48.5862 12.2389 48.4873 12.0883 48.5127 11.8351C48.2848 12.2392 47.9684 12.1916 47.6224 12.1287C47.0902 12.0317 46.5488 11.9859 46.0151 11.8965C44.8177 11.6959 43.8388 11.0761 42.9827 10.2495C42.509 9.79221 42.0588 9.30959 41.6126 8.82515C41.4129 8.60804 41.1905 8.55004 40.9061 8.57505C38.8988 8.75157 37.6603 9.7257 37.0285 11.631C36.6446 12.7894 36.4451 13.9941 36.1317 15.1699C35.7682 16.5334 35.2953 17.8433 34.2485 18.8542C33.8381 19.2508 33.3319 19.5077 32.8496 19.8059C32.1305 20.2504 31.4132 20.485 30.6029 20.5348C28.253 20.6794 26.2438 19.9722 24.6387 18.194C24.079 17.5742 23.4467 17.0198 22.8468 16.4364C21.8024 15.4202 20.1923 15.5262 19.0977 16.1627C17.8482 16.8895 17.0019 18.0091 16.2164 19.1672C15.3392 20.4601 14.5955 21.846 13.6831 23.1117C12.595 24.6214 11.2153 25.8567 9.44356 26.5104C8.55642 26.8377 7.61184 27.0052 6.61614 26.8636C6.06121 26.785 5.48471 26.773 4.91763 26.7021C4.07037 26.5961 3.27022 26.3324 2.53097 25.945C1.15378 25.2235 0.321563 24.0692 0.0779863 22.5146C-0.0474269 21.7135 -0.0050184 20.915 0.0888602 20.1149C0.118401 19.8639 0.206299 19.6346 0.308333 19.4128C0.353823 19.3136 0.412361 19.1292 0.585801 19.2058C0.732599 19.2707 0.47398 19.4104 0.645245 19.5217Z" fill="#212138"/>
</svg>
