<svg width="92" height="93" viewBox="0 0 92 93" fill="none" xmlns="http://www.w3.org/2000/svg">
<g clip-path="url(#clip0_40_3696)">
<path d="M25.3331 56.1124C25.3331 56.1124 25.381 56.1607 25.4766 56.2526C25.381 56.3396 25.3331 56.388 25.3331 56.388L15.7232 66.7933H4.41512C1.94208 66.7933 0.660115 63.81 2.34867 61.9823L16.5507 46.6016L25.3331 56.1124Z" fill="#502F41" stroke="#231F20" stroke-linejoin="round"/>
<path d="M15.8189 26.3038L0.841895 10.0914C-0.272648 8.88262 0.574022 6.9147 2.20996 6.9147H6.73032V2.1327C6.73032 0.479065 8.68196 -0.376764 9.87304 0.749835L25.9215 15.8888V25.6994C25.9215 25.6994 25.8976 25.9315 25.9024 26.2796C25.558 26.2796 25.3331 26.299 25.3331 26.299H15.8189V26.3038Z" fill="#929471" stroke="#231F20" stroke-linejoin="round"/>
<path d="M25.9023 26.2842C27.0743 26.3035 29.5952 26.6371 28.8633 29.2675C26.2611 30.0169 25.9215 27.4736 25.9023 26.2842Z" stroke="#231F20" stroke-linejoin="round"/>
<path d="M26.0028 66.8125C26.0219 65.6279 26.3568 63.0846 28.9542 63.8195C29.6956 66.4499 27.1795 66.7931 26.0028 66.8125Z" stroke="#231F20" stroke-linejoin="round"/>
<path d="M25.4766 56.2529C26.3042 55.489 30.6093 51.8916 33.7472 56.2433C30.614 60.6094 26.3137 57.0169 25.4766 56.2529Z" stroke="#231F20" stroke-linejoin="round"/>
<path d="M25.5723 36.8533C26.3999 36.0894 30.7097 32.4823 33.8525 36.8533C30.7097 41.205 26.4094 37.6173 25.5723 36.8533Z" stroke="#231F20" stroke-linejoin="round"/>
<path d="M36.3542 25.752C37.11 26.5884 40.6689 30.9401 36.3638 34.112C32.0443 30.9498 35.5889 26.6029 36.3542 25.752Z" stroke="#231F20" stroke-linejoin="round"/>
<path d="M36.4594 67.1461C35.7036 66.3096 32.1352 61.9531 36.4594 58.7764C40.7645 61.9531 37.2152 66.2999 36.4594 67.1461Z" stroke="#231F20" stroke-linejoin="round"/>
<path d="M36.5934 67.2915L46.1029 76.2656L30.7815 90.7229C28.9734 92.4297 26.022 91.1339 26.022 88.6341V77.0103L36.3207 67.2915C36.3207 67.2915 36.3686 67.2432 36.4595 67.1465C36.5456 67.2432 36.5934 67.2915 36.5934 67.2915Z" fill="#502F41" stroke="#231F20" stroke-linejoin="round"/>
<path d="M55.5454 25.8486C56.3012 26.6851 59.8648 31.0416 55.5454 34.2183C51.2355 31.0416 54.7848 26.6948 55.5454 25.8486Z" stroke="#231F20" stroke-linejoin="round"/>
<path d="M55.6506 67.2477C54.8948 66.4112 51.3359 62.0595 55.641 58.8828C59.9605 62.0547 56.4064 66.4015 55.6506 67.2477Z" stroke="#231F20" stroke-linejoin="round"/>
<path d="M66.4325 56.1467C65.605 56.9106 61.2903 60.5129 58.1523 56.1467C61.2951 51.7853 65.605 55.3876 66.4325 56.1467Z" stroke="#231F20" stroke-linejoin="round"/>
<path d="M66.5282 36.7526C65.7006 37.5117 61.3955 41.1091 58.2528 36.7574C61.3907 32.3864 65.6911 35.9838 66.5282 36.7526Z" stroke="#231F20" stroke-linejoin="round"/>
<path d="M65.9924 26.1875C65.978 27.377 65.6432 29.9106 63.0506 29.1756C62.3091 26.5453 64.8157 26.2068 65.9924 26.1875Z" stroke="#231F20" stroke-linejoin="round"/>
<path d="M66.0929 66.7063C64.9209 66.6918 62.4144 66.3533 63.1415 63.7327C65.7437 62.9832 66.0785 65.5217 66.0929 66.7063Z" stroke="#231F20" stroke-linejoin="round"/>
<path d="M55.6793 25.7038C55.6793 25.7038 55.6315 25.7522 55.5454 25.8489C55.4593 25.7522 55.4114 25.7038 55.4114 25.7038L45.8972 16.7297L61.2185 2.27732C63.0267 0.570496 65.9781 1.86633 65.9781 4.36612V15.9947L55.6793 25.7086V25.7038Z" fill="#502F41" stroke="#231F20" stroke-linejoin="round"/>
<path d="M76.1859 66.6914L91.1629 82.9135C92.2774 84.1223 91.4308 86.0902 89.7948 86.0902H85.2697V90.8625C85.2697 92.5161 83.3228 93.372 82.127 92.2454L66.0785 77.1064V67.291C66.0785 67.291 66.1024 67.0589 66.0928 66.7059C66.442 66.7156 66.6716 66.6914 66.6716 66.6914H76.1859Z" fill="#929471" stroke="#231F20" stroke-linejoin="round"/>
<path d="M66.6716 36.8879C66.6716 36.8879 66.6238 36.8396 66.5281 36.7525C66.6238 36.6607 66.6716 36.6123 66.6716 36.6123L76.2816 26.2021H87.5896C90.0627 26.2021 91.3446 29.1855 89.6561 31.0132L75.454 46.3939L66.6716 36.8879Z" fill="#502F41" stroke="#231F20" stroke-linejoin="round"/>
<path d="M66.576 56.2819L76.186 66.692H66.6717C66.6717 66.692 66.4421 66.7162 66.0929 66.7066C66.0785 65.5219 65.7437 62.9834 63.1415 63.7329C62.4144 66.3536 64.9209 66.692 66.0929 66.7066C66.1025 67.0595 66.0785 67.2916 66.0785 67.2916V77.107L55.7846 67.3931C55.7846 67.3931 55.7367 67.3448 55.6506 67.2481C56.4064 66.4019 59.9605 62.0551 55.6411 58.8832C51.336 62.0599 54.8948 66.4116 55.6506 67.2481C55.5597 67.3448 55.5119 67.3931 55.5119 67.3931L46.1029 76.2657L36.5934 67.2916C36.5934 67.2916 36.5455 67.2432 36.4594 67.1465C37.2152 66.3004 40.7645 61.9536 36.4594 58.7768C32.1352 61.9536 35.7037 66.3101 36.4594 67.1465C36.3686 67.2432 36.3207 67.2916 36.3207 67.2916L26.022 77.0103V67.3931C26.022 67.3931 25.998 67.161 26.0028 66.8129C27.1796 66.7936 29.6956 66.4503 28.9542 63.8199C26.3568 63.085 26.022 65.6283 26.0028 66.8129C25.6584 66.8178 25.4288 66.7936 25.4288 66.7936H15.7232L25.3331 56.3883C25.3331 56.3883 25.381 56.3399 25.4766 56.2529C26.3138 57.0168 30.6141 60.6094 33.7472 56.2432C30.6093 51.8915 26.3042 55.4889 25.4766 56.2529C25.381 56.161 25.3331 56.1127 25.3331 56.1127L16.5507 46.6018L25.4288 36.9895C25.4288 36.9895 25.4767 36.9411 25.5723 36.8541C26.4094 37.6181 30.7097 41.2058 33.8525 36.8541C30.7097 32.4831 26.3999 36.0901 25.5723 36.8541C25.4767 36.7622 25.4288 36.7139 25.4288 36.7139L15.8189 26.3037H25.3331C25.3331 26.3037 25.558 26.2795 25.9024 26.2844C25.9215 27.4738 26.2611 30.0171 28.8633 29.2677C29.5952 26.6373 27.0743 26.3037 25.9024 26.2844C25.8976 25.9362 25.9215 25.7042 25.9215 25.7042V15.8936L36.2203 25.6074C36.2203 25.6074 36.2681 25.6558 36.3542 25.7525C35.5889 26.6035 32.0443 30.9503 36.3638 34.1125C40.6689 30.9407 37.11 26.589 36.3542 25.7525C36.4403 25.6558 36.4929 25.6026 36.4929 25.6026L45.8972 16.73L55.4114 25.7042C55.4114 25.7042 55.4593 25.7525 55.5454 25.8492C54.7848 26.6954 51.2355 31.0422 55.5454 34.2189C59.8648 31.0422 56.3012 26.6857 55.5454 25.8492C55.6315 25.7525 55.6793 25.7042 55.6793 25.7042L65.9781 15.9903V25.6026C65.9781 25.6026 66.002 25.8347 65.9924 26.1877C64.8157 26.207 62.3092 26.5455 63.0506 29.1758C65.6432 29.9108 65.9781 27.3771 65.9924 26.1877C66.3416 26.178 66.576 26.2022 66.576 26.2022H76.2816L66.6717 36.6123C66.6717 36.6123 66.6238 36.6607 66.5282 36.7526C65.6911 35.9838 61.3908 32.3864 58.2528 36.7574C61.3955 41.1091 65.7006 37.5117 66.5282 36.7526C66.6238 36.8396 66.6717 36.8879 66.6717 36.8879L75.4541 46.3939L66.576 56.0111C66.576 56.0111 66.5282 56.0595 66.4325 56.1465C65.605 55.3874 61.2951 51.7852 58.1524 56.1465C61.2903 60.5127 65.605 56.9105 66.4325 56.1465C66.5282 56.2335 66.576 56.2819 66.576 56.2819Z" fill="#ECE8DC"/>
<path d="M66.0929 66.7065C66.4421 66.7162 66.6717 66.692 66.6717 66.692H76.186L66.576 56.2819C66.576 56.2819 66.5282 56.2335 66.4325 56.1465M66.0929 66.7065C66.0785 65.5219 65.7437 62.9834 63.1415 63.7329C62.4144 66.3536 64.9209 66.692 66.0929 66.7065ZM66.0929 66.7065C66.1024 67.0595 66.0785 67.2916 66.0785 67.2916V77.107L55.7846 67.3931C55.7846 67.3931 55.7367 67.3448 55.6506 67.2481M55.6506 67.2481C56.4064 66.4019 59.9605 62.0551 55.6411 58.8832C51.336 62.0599 54.8948 66.4116 55.6506 67.2481ZM55.6506 67.2481C55.5597 67.3448 55.5119 67.3931 55.5119 67.3931L46.1029 76.2657L36.5934 67.2916C36.5934 67.2916 36.5455 67.2432 36.4594 67.1465M36.4594 67.1465C37.2152 66.3004 40.7645 61.9536 36.4594 58.7768C32.1352 61.9536 35.7037 66.3101 36.4594 67.1465ZM36.4594 67.1465C36.3686 67.2432 36.3207 67.2916 36.3207 67.2916L26.022 77.0103V67.3931C26.022 67.3931 25.998 67.161 26.0028 66.8129M26.0028 66.8129C27.1796 66.7936 29.6956 66.4503 28.9542 63.8199C26.3568 63.085 26.022 65.6283 26.0028 66.8129ZM26.0028 66.8129C25.6584 66.8178 25.4288 66.7936 25.4288 66.7936H15.7232L25.3331 56.3883C25.3331 56.3883 25.381 56.3399 25.4766 56.2529M25.4766 56.2529C26.3138 57.0168 30.6141 60.6094 33.7472 56.2432C30.6093 51.8915 26.3042 55.4889 25.4766 56.2529ZM25.4766 56.2529C25.381 56.161 25.3331 56.1127 25.3331 56.1127L16.5507 46.6018L25.4288 36.9895C25.4288 36.9895 25.4766 36.9411 25.5723 36.8541M25.5723 36.8541C26.4094 37.6181 30.7097 41.2058 33.8525 36.8541C30.7097 32.4831 26.3999 36.0901 25.5723 36.8541ZM25.5723 36.8541C25.4766 36.7622 25.4288 36.7139 25.4288 36.7139L15.8189 26.3037H25.3331C25.3331 26.3037 25.558 26.2795 25.9024 26.2844M25.9024 26.2844C25.9215 27.4738 26.2611 30.0171 28.8633 29.2677C29.5952 26.6373 27.0743 26.3037 25.9024 26.2844ZM25.9024 26.2844C25.8976 25.9362 25.9215 25.7042 25.9215 25.7042V15.8936L36.2203 25.6074C36.2203 25.6074 36.2681 25.6558 36.3542 25.7525M36.3542 25.7525C35.5889 26.6035 32.0443 30.9503 36.3638 34.1125C40.6689 30.9407 37.11 26.589 36.3542 25.7525ZM36.3542 25.7525C36.4403 25.6558 36.4929 25.6026 36.4929 25.6026L45.8972 16.73L55.4114 25.7042C55.4114 25.7042 55.4593 25.7525 55.5454 25.8492M55.5454 25.8492C54.7848 26.6954 51.2355 31.0422 55.5454 34.2189C59.8648 31.0422 56.3012 26.6857 55.5454 25.8492ZM55.5454 25.8492C55.6315 25.7525 55.6793 25.7042 55.6793 25.7042L65.9781 15.9903V25.6026C65.9781 25.6026 66.002 25.8347 65.9924 26.1877M65.9924 26.1877C64.8157 26.207 62.3092 26.5455 63.0506 29.1758C65.6432 29.9108 65.9781 27.3771 65.9924 26.1877ZM65.9924 26.1877C66.3416 26.178 66.576 26.2022 66.576 26.2022H76.2816L66.6717 36.6123C66.6717 36.6123 66.6238 36.6607 66.5282 36.7526M66.5282 36.7526C65.6911 35.9838 61.3908 32.3864 58.2528 36.7574C61.3955 41.1091 65.7006 37.5117 66.5282 36.7526ZM66.5282 36.7526C66.6238 36.8396 66.6717 36.8879 66.6717 36.8879L75.4541 46.3939L66.576 56.0111C66.576 56.0111 66.5282 56.0595 66.4325 56.1465M66.4325 56.1465C65.605 55.3874 61.2951 51.7852 58.1524 56.1465C61.2903 60.5127 65.605 56.9105 66.4325 56.1465Z" stroke="#231F20" stroke-linejoin="round"/>
<path d="M25.4288 36.7139C25.4288 36.7139 25.4766 36.7622 25.5723 36.8541C25.4766 36.9411 25.4288 36.9895 25.4288 36.9895L16.5507 46.6018L2.24821 31.1147C0.559651 29.287 1.84161 26.3037 4.31466 26.3037H15.8188L25.4288 36.7139Z" fill="#502F41" stroke="#231F20" stroke-linejoin="round"/>
<path d="M25.4288 66.793C25.4288 66.793 25.6584 66.8171 26.0028 66.8123C25.998 67.1604 26.0219 67.3925 26.0219 67.3925V77.0097L9.97826 92.1487C8.7824 93.2753 6.83554 92.4195 6.83554 90.7658V86.1917H2.1095C0.473558 86.1917 -0.373111 84.2238 0.741431 83.015L15.7184 66.793H25.424H25.4288Z" fill="#929471" stroke="#231F20" stroke-linejoin="round"/>
<path d="M25.9023 26.2842C27.0743 26.3035 29.5952 26.6371 28.8633 29.2675C26.2611 30.0169 25.9215 27.4736 25.9023 26.2842Z" fill="#929471" stroke="#231F20" stroke-linejoin="round"/>
<path d="M28.9542 63.8195C29.6956 66.4499 27.1795 66.7931 26.0028 66.8125C26.0219 65.6279 26.3568 63.0846 28.9542 63.8195Z" fill="#929471" stroke="#231F20" stroke-linejoin="round"/>
<path d="M33.7472 56.2433C30.614 60.6094 26.3137 57.0169 25.4766 56.2529C26.3042 55.489 30.6093 51.8916 33.7472 56.2433Z" fill="#502F41" stroke="#231F20" stroke-linejoin="round"/>
<path d="M33.8525 36.8533C30.7097 41.205 26.4094 37.6173 25.5723 36.8533C26.3999 36.0894 30.7097 32.4823 33.8525 36.8533Z" fill="#502F41" stroke="#231F20" stroke-linejoin="round"/>
<path d="M36.3542 25.752C37.11 26.5884 40.6689 30.9401 36.3638 34.112C32.0443 30.9498 35.5889 26.6029 36.3542 25.752Z" fill="#502F41" stroke="#231F20" stroke-linejoin="round"/>
<path d="M36.4594 67.1461C35.7036 66.3096 32.1352 61.9531 36.4594 58.7764C40.7645 61.9531 37.2152 66.2999 36.4594 67.1461Z" fill="#502F41" stroke="#231F20" stroke-linejoin="round"/>
<path d="M30.6762 2.374L45.8924 16.7345L36.4881 25.6071C36.4881 25.6071 36.4355 25.6603 36.3494 25.757C36.2633 25.6603 36.2154 25.6119 36.2154 25.6119L25.9167 15.898V4.4628C25.9167 1.96301 28.8681 0.667176 30.6762 2.374Z" fill="#502F41" stroke="#231F20" stroke-linejoin="round"/>
<path d="M55.5454 25.8486C56.3012 26.6851 59.8648 31.0416 55.5454 34.2183C51.2355 31.0416 54.7848 26.6948 55.5454 25.8486Z" fill="#502F41" stroke="#231F20" stroke-linejoin="round"/>
<path d="M55.6506 67.2477C54.8948 66.4112 51.3359 62.0595 55.641 58.8828C59.9605 62.0547 56.4064 66.4015 55.6506 67.2477Z" fill="#502F41" stroke="#231F20" stroke-linejoin="round"/>
<path d="M66.4325 56.1467C65.605 56.9106 61.2903 60.5129 58.1523 56.1467C61.2951 51.7853 65.605 55.3876 66.4325 56.1467Z" fill="#502F41" stroke="#231F20" stroke-linejoin="round"/>
<path d="M58.2528 36.7574C61.3907 32.3864 65.6911 35.9838 66.5282 36.7526C65.7006 37.5117 61.3955 41.1091 58.2528 36.7574Z" fill="#502F41" stroke="#231F20" stroke-linejoin="round"/>
<path d="M63.0506 29.1756C62.3091 26.5453 64.8157 26.2068 65.9924 26.1875C65.978 27.377 65.6432 29.9106 63.0506 29.1756Z" fill="#929471" stroke="#231F20" stroke-miterlimit="10"/>
<path d="M66.0929 66.7063C64.9209 66.6918 62.4144 66.3533 63.1415 63.7327C65.7437 62.9832 66.0785 65.5217 66.0929 66.7063Z" fill="#929471" stroke="#231F20" stroke-miterlimit="10"/>
<path d="M55.7845 67.3931L66.0785 77.1069V88.5325C66.0785 91.0323 63.1271 92.3281 61.319 90.6213L46.1028 76.2608L55.5119 67.3882C55.5119 67.3882 55.5597 67.3399 55.6506 67.2432C55.7367 67.3399 55.7845 67.3882 55.7845 67.3882V67.3931Z" fill="#502F41" stroke="#231F20" stroke-linejoin="round"/>
<path d="M65.9924 26.1878C66.002 25.8349 65.978 25.6028 65.978 25.6028V15.9904L82.0217 0.85628C83.2176 -0.270318 85.1644 0.58551 85.1644 2.23914V6.8084H89.8857C91.5216 6.8084 92.3683 8.77632 91.2538 9.98512L76.2768 26.2072H66.5712C66.5712 26.2072 66.3368 26.183 65.9876 26.1927L65.9924 26.1878Z" fill="#929471" stroke="#231F20" stroke-linejoin="round"/>
<path d="M87.6853 66.6917H76.1811L66.5712 56.2815C66.5712 56.2815 66.5233 56.2332 66.4277 56.1461C66.5233 56.0591 66.5712 56.0107 66.5712 56.0107L75.4493 46.3936L89.7518 61.8807C91.4403 63.7084 90.1583 66.6917 87.6853 66.6917Z" fill="#502F41" stroke="#231F20" stroke-linejoin="round"/>
</g>
<defs>
<clipPath id="clip0_40_3696">
<rect width="92" height="93" fill="white"/>
</clipPath>
</defs>
</svg>
